<svg id="Layer_1" data-name="Layer 1" xmlns="http://www.w3.org/2000/svg" viewBox="0 0 48 48"><defs><style>.cls-1{fill:none;stroke:#000;stroke-linecap:round;stroke-linejoin:round;stroke-width:2px}</style></defs><path class="cls-1" d="M25.91 17.09 4 39l4 4 21.55-21.55"/><path class="cls-1" d="M41 17h-3l-1.5-1.5 2-2L33 8l-1 1s-2-5-10-4a28.74 28.74 0 0 0-3.21.77c1.34-.13 4.39.58 9.21 7.23l-3 3 5 6 3-3 1.5 1.5L34 24l3 3 7-7zM18.79 5.77A1.79 1.79 0 0 0 18 6z"/><path class="cls-1" d="M-214-10h680v680h-680z"/></svg>